<svg width="384" height="384" viewBox="0 0 384 384" fill="none" xmlns="http://www.w3.org/2000/svg">
<path d="M106.74 89.5296L114.939 93.0279L123.137 96.5261L126.06 89.2723L128.978 82.0186L119.973 80.4557L110.972 78.8928L108.856 84.2112L106.74 89.5296Z" fill="#D1B7E5" stroke="black" stroke-width="3" stroke-miterlimit="10" stroke-linecap="round"/>
<path d="M110.235 82.0032L118.237 84.3993L126.236 86.7993" fill="#D1B7E5"/>
<path d="M110.235 82.0032L118.237 84.3993L126.236 86.7993" stroke="black" stroke-width="3" stroke-miterlimit="10" stroke-linecap="round"/>
<path d="M71.7697 71.7965L74.9684 73.321L78.1671 74.8416V71.7965V68.7476L74.9684 70.272L71.7697 71.7965Z" fill="#F9851C" stroke="black" stroke-width="3" stroke-miterlimit="10" stroke-linecap="round"/>
<path d="M142.644 317.426L210.566 318.962L278.484 320.498C278.484 320.498 291.371 326.02 304.485 325.19C317.599 324.361 330.947 317.184 331.868 291.782C331.868 291.782 331.868 288.046 330.013 276.442C328.159 264.837 324.442 245.376 317.015 213.888C315.686 208.231 313.721 202.743 311.155 197.53C308.592 192.317 305.413 187.431 301.686 182.976C301.279 182.492 300.863 182.008 300.438 181.524C300.013 181.041 299.579 180.564 299.136 180.096C291.187 171.623 281.403 165.083 270.536 160.977C263.978 158.458 257.13 156.773 250.153 155.962C250.153 155.962 224.198 152.463 196.497 155.823C168.795 159.183 139.323 169.398 132.33 196.823C130.267 203.991 128.206 211.15 126.148 218.3C124.09 225.45 122.029 232.608 119.965 239.773C117.979 233.038 115.991 226.301 114.002 219.563L108.035 199.357L84.7372 205.92L61.4399 212.483C63.191 219.919 64.9433 227.357 66.6969 234.797L71.95 257.115C74.638 269.56 76.3583 276.918 77.3875 281.169C78.4166 285.419 78.7583 286.545 78.7583 286.545C79.6278 290.934 81.1268 295.175 83.2089 299.136C86.3884 305.249 91.7107 312.273 100.489 317.184C110.634 322.836 120.795 323.094 128.605 321.842C133.482 321.089 138.215 319.6 142.644 317.426Z" fill="#104FC1" stroke="black" stroke-width="3" stroke-miterlimit="10" stroke-linecap="round"/>
<path d="M224.018 293.698L234.436 297.78L237.988 299.17L243.748 302.45C246.82 304.197 250.276 306.171 251.858 307.058C254.834 308.736 258.513 310.744 262.94 313.01C267.368 315.275 272.54 317.802 278.5 320.525L263.67 320.122L248.84 319.738L236.436 306.728L224.018 293.698Z" fill="black" stroke="black" stroke-width="3" stroke-miterlimit="10" stroke-linecap="round"/>
<path d="M180.338 158.627L174.037 178.084L167.735 197.541L182.55 188.079L197.368 178.618L188.851 168.622L180.338 158.627Z" fill="#104FC1" stroke="black" stroke-width="3" stroke-miterlimit="10" stroke-linecap="round"/>
<path d="M170.596 271.764C170.596 272.249 170.427 272.718 170.12 273.092C169.813 273.466 169.385 273.722 168.91 273.816C168.435 273.91 167.942 273.837 167.515 273.608C167.088 273.38 166.754 273.01 166.569 272.562C166.384 272.115 166.36 271.617 166.501 271.154C166.642 270.69 166.94 270.29 167.343 270.022C167.746 269.753 168.229 269.633 168.711 269.681C169.193 269.729 169.643 269.943 169.985 270.286C170.376 270.679 170.595 271.21 170.596 271.764Z" fill="black" stroke="black" stroke-width="3" stroke-miterlimit="10" stroke-linecap="round"/>
<path d="M197.368 178.618L208.946 166.495L220.524 154.368L222.789 178.149L225.055 201.93L211.212 190.276L197.368 178.618Z" fill="#104FC1" stroke="black" stroke-width="3" stroke-miterlimit="10" stroke-linecap="round"/>
<path d="M186.77 166.18L192.069 172.401L197.368 178.618L203.47 172.228L209.572 165.842L198.171 166.011L186.77 166.18Z" fill="#FFF8F8" stroke="black" stroke-width="3" stroke-miterlimit="10" stroke-linecap="round"/>
<path d="M197.284 179.086L185.637 248.521L173.994 317.952L195.594 318.49L217.198 319.023L207.325 249.059L197.453 179.086C197.451 179.065 197.441 179.046 197.425 179.033C197.41 179.019 197.389 179.012 197.368 179.013C197.348 179.013 197.328 179.02 197.312 179.034C197.297 179.047 197.287 179.066 197.284 179.086Z" fill="#FFF8F8" stroke="black" stroke-width="3" stroke-miterlimit="10" stroke-linecap="round"/>
<path d="M265.862 226.226C266.853 231.802 267.843 237.379 268.831 242.957C269.819 248.535 270.808 254.111 271.799 259.684" stroke="black" stroke-width="3" stroke-miterlimit="10" stroke-linecap="round"/>
<path d="M186.056 243.978H180.637H175.219L174.77 246.647L174.321 249.316H180.576H186.831L186.444 246.647L186.056 243.978Z" fill="#F7CE21" stroke="black" stroke-width="3" stroke-miterlimit="10" stroke-linecap="round"/>
<path d="M194.097 299.236L190.464 274.276L186.831 249.316H180.576H174.321L170.181 273.892L166.042 298.464L180.069 298.852L194.097 299.236Z" fill="#14AF6C" stroke="black" stroke-width="3" stroke-miterlimit="10" stroke-linecap="round"/>
<path d="M167.969 287.021C170.617 285.824 173.415 284.991 176.287 284.544C181.098 283.776 187.215 283.987 192.438 287.839" stroke="black" stroke-width="3" stroke-miterlimit="10" stroke-linecap="round"/>
<path d="M215.612 243.978H210.194H204.776L204.326 246.647L203.877 249.316H210.132H216.388L216 246.647L215.612 243.978Z" fill="#F7CE21" stroke="black" stroke-width="3" stroke-miterlimit="10" stroke-linecap="round"/>
<path d="M223.649 299.236L220.02 274.276L216.388 249.316H210.132H203.877L199.734 273.892L195.594 298.464L209.622 298.852L223.649 299.236Z" fill="#14AF6C" stroke="black" stroke-width="3" stroke-miterlimit="10" stroke-linecap="round"/>
<path d="M194.408 298.464C194.408 300.687 192.806 302.688 190.222 304.155C187.638 305.622 184.078 306.513 180.123 306.513C176.168 306.513 172.608 305.61 170.024 304.155C167.439 302.7 165.842 300.699 165.842 298.464C165.842 296.229 167.439 294.24 170.024 292.777C172.608 291.314 176.168 290.419 180.123 290.419C184.078 290.419 187.638 291.322 190.222 292.777C192.806 294.232 194.408 296.244 194.408 298.464Z" fill="black" stroke="black" stroke-width="3" stroke-miterlimit="10" stroke-linecap="round"/>
<path d="M224.018 298.464C224.018 300.687 222.424 302.688 219.855 304.155C217.286 305.622 213.731 306.513 209.806 306.513C205.882 306.513 202.33 305.61 199.757 304.155C197.184 302.7 195.594 300.699 195.594 298.464C195.594 296.229 197.184 294.24 199.757 292.777C202.33 291.314 205.882 290.419 209.806 290.419C213.731 290.419 217.283 291.322 219.855 292.777C222.428 294.232 224.018 296.244 224.018 298.464Z" fill="black" stroke="black" stroke-width="3" stroke-miterlimit="10" stroke-linecap="round"/>
<path d="M197.522 287.021C200.172 285.825 202.971 284.991 205.843 284.544C210.655 283.776 216.772 283.987 221.99 287.839" stroke="black" stroke-width="3" stroke-miterlimit="10" stroke-linecap="round"/>
<path d="M119.862 239.194L120.829 243.978L121.797 248.767" stroke="black" stroke-width="3" stroke-miterlimit="10" stroke-linecap="round"/>
<path d="M148.608 234.482C147.612 248.306 146.619 262.13 145.628 275.954C144.637 289.778 143.645 303.602 142.652 317.426" stroke="black" stroke-width="3" stroke-miterlimit="10" stroke-linecap="round"/>
<path d="M200.778 267.698L195.153 267.786L189.531 267.875L188.882 263.409L188.233 258.947H195.245H202.26L201.519 263.32L200.778 267.698Z" fill="black" stroke="black" stroke-width="3" stroke-miterlimit="10" stroke-linecap="round"/>
<path d="M245.46 251.278C240.681 249.213 235.694 247.668 230.584 246.67C222.317 245.084 212.387 244.95 205.74 250.744L194.304 259.822L182.861 268.907C181.785 269.739 180.851 270.74 180.096 271.872C179.021 273.569 178.56 275.712 181.075 277.478C180.455 278.474 179.989 279.557 179.693 280.692C179.309 282.37 179.524 284.195 181.947 284.771C181.421 285.745 181.087 286.811 180.964 287.912C180.856 289.505 181.509 291.153 184.562 291.368C184.114 292.08 183.815 292.875 183.683 293.706C183.553 294.369 183.682 295.056 184.044 295.626C185.027 296.974 186.382 297.028 187.726 296.555C189.07 296.083 190.391 295.081 191.313 294.317C192.726 293.142 194.085 291.936 195.471 290.761C196.853 289.568 198.296 288.447 199.795 287.405C202.312 285.683 204.954 284.15 207.698 282.82C209.995 281.704 212.359 280.731 214.775 279.905C215.702 279.587 216.648 279.33 217.609 279.137C218.569 278.947 219.542 278.832 220.52 278.795C222.056 278.738 223.672 278.868 224.191 279.563C224.709 280.259 224.148 281.533 221.372 283.753C221.61 285.335 221.846 286.915 222.079 288.491C222.312 290.068 222.547 291.647 222.785 293.226L230.4 296.191L238.007 299.171L241.743 275.224L245.48 251.278" fill="#FFC0C0"/>
<path d="M245.46 251.278C240.681 249.213 235.694 247.668 230.584 246.67C222.317 245.084 212.387 244.95 205.74 250.744L194.304 259.822L182.861 268.907C181.785 269.739 180.851 270.74 180.096 271.872C179.021 273.569 178.56 275.712 181.075 277.478C180.455 278.474 179.989 279.557 179.693 280.692C179.309 282.37 179.524 284.195 181.947 284.771C181.421 285.745 181.087 286.811 180.964 287.912C180.856 289.505 181.509 291.153 184.562 291.368C184.114 292.08 183.815 292.875 183.683 293.706C183.553 294.369 183.682 295.056 184.044 295.626C185.027 296.974 186.382 297.028 187.726 296.555C189.07 296.083 190.391 295.081 191.313 294.317C192.726 293.142 194.085 291.936 195.471 290.761C196.853 289.568 198.296 288.447 199.795 287.405C202.312 285.683 204.954 284.15 207.698 282.82C209.995 281.704 212.359 280.731 214.775 279.905C215.702 279.587 216.648 279.33 217.609 279.137C218.569 278.947 219.542 278.832 220.52 278.795C222.056 278.738 223.672 278.868 224.191 279.563C224.709 280.259 224.148 281.533 221.372 283.753C221.61 285.335 221.846 286.915 222.079 288.491C222.312 290.068 222.547 291.647 222.785 293.226L230.4 296.191L238.007 299.171L241.743 275.224L245.48 251.278" stroke="black" stroke-width="3" stroke-miterlimit="10" stroke-linecap="round"/>
<path d="M181.064 277.467L192.637 268.662L204.211 259.853" stroke="black" stroke-width="3" stroke-miterlimit="10" stroke-linecap="round"/>
<path d="M181.935 284.759L193.344 276.319L204.756 267.875" stroke="black" stroke-width="3" stroke-miterlimit="10" stroke-linecap="round"/>
<path d="M184.55 291.337L194.653 283.826L204.756 276.319" stroke="black" stroke-width="3" stroke-miterlimit="10" stroke-linecap="round"/>
<path d="M179.639 243.978C177.038 233.38 175.18 222.614 174.079 211.757C172.285 193.901 172.458 172.562 180.334 158.627" stroke="black" stroke-width="3" stroke-miterlimit="10" stroke-linecap="round"/>
<path d="M210.132 243.978C215.275 233.213 219.514 222.038 222.804 210.57C228.084 191.973 231.252 169.571 222.854 154.349" stroke="black" stroke-width="3" stroke-miterlimit="10" stroke-linecap="round"/>
<path d="M175.726 235.665C175.726 236.149 175.558 236.618 175.25 236.992C174.943 237.366 174.515 237.622 174.04 237.717C173.565 237.811 173.072 237.737 172.645 237.508C172.218 237.28 171.884 236.91 171.699 236.462C171.514 236.015 171.49 235.517 171.631 235.054C171.773 234.59 172.07 234.19 172.473 233.922C172.876 233.653 173.36 233.533 173.842 233.581C174.323 233.629 174.774 233.843 175.116 234.186C175.31 234.38 175.464 234.611 175.569 234.864C175.673 235.118 175.727 235.39 175.726 235.665Z" fill="black" stroke="black" stroke-width="3" stroke-miterlimit="10" stroke-linecap="round"/>
<path d="M274.56 103.499C274.56 104.133 274.176 104.717 273.481 105.147C272.667 105.606 271.753 105.857 270.819 105.877C269.884 105.896 268.96 105.684 268.128 105.258C267.433 104.855 266.999 104.291 266.976 103.657C266.953 103.023 267.36 102.44 268.051 102.01C268.865 101.55 269.781 101.299 270.716 101.28C271.65 101.26 272.575 101.473 273.408 101.898C274.115 102.301 274.56 102.866 274.56 103.499Z" fill="black" stroke="black" stroke-width="3" stroke-miterlimit="10" stroke-linecap="round"/>
<path d="M274.31 103.588L276.795 93.2199L279.276 82.8519C279.284 82.8112 279.306 82.7746 279.338 82.7481C279.371 82.7216 279.411 82.7068 279.452 82.7059C279.494 82.7044 279.534 82.7168 279.568 82.7412C279.601 82.7656 279.625 82.8005 279.637 82.8403L282.29 87.4215L284.928 91.9757" stroke="black" stroke-width="5" stroke-miterlimit="10" stroke-linecap="round"/>
<path d="M243.644 136.735C245.413 135.822 247.068 134.703 248.575 133.402C250.4 131.823 251.937 129.939 253.117 127.834C253.668 126.874 254.153 125.879 254.569 124.854C254.989 123.82 255.248 122.729 255.337 121.617C255.384 120.432 255.057 119.262 254.404 118.272C253.732 117.289 252.714 116.64 251.393 116.94C251.016 117.022 250.667 117.202 250.382 117.462C250.097 117.723 249.885 118.054 249.769 118.422C249.523 119.167 249.499 119.967 249.7 120.726C249.98 121.847 251.059 123.517 252.611 124.927C254.162 126.336 256.178 127.492 258.34 127.588C260.801 127.692 263.416 126.436 265.555 124.113C267.694 121.789 269.349 118.445 269.906 114.371" stroke="black" stroke-width="3" stroke-miterlimit="10" stroke-linecap="round"/>
<path d="M107.985 199.142C104.317 186.47 100.904 174.49 97.4938 162.516C94.0839 150.543 90.6739 138.563 87.0029 125.887C86.9085 125.554 86.7891 125.23 86.6458 124.915C86.5016 124.602 86.328 124.304 86.1274 124.024C85.378 122.976 84.2948 122.214 83.0554 121.862C81.989 121.535 80.8363 121.643 79.849 122.162C79.0628 122.638 78.4627 123.368 78.1479 124.232C77.7827 125.203 77.682 126.254 77.856 127.277L79.8528 139.841L81.8535 152.41C81.2277 152.032 80.5533 151.741 79.849 151.546C78.5905 151.165 77.2424 151.206 76.009 151.661C74.5437 152.263 73.361 153.397 72.6989 154.836C71.9464 156.437 71.7387 158.241 72.1075 159.971C71.299 158.97 70.2271 158.214 69.0125 157.789C67.8668 157.382 66.6225 157.342 65.4528 157.674C63.9435 158.148 62.6822 159.198 61.9431 160.596C61.1254 162.103 60.889 163.858 61.2787 165.527C60.623 165.133 59.918 164.827 59.1821 164.617C57.9645 164.232 56.6488 164.299 55.4765 164.805C55.254 164.913 55.0419 165.042 54.8429 165.189C54.4405 165.48 54.0766 165.82 53.76 166.203C52.5274 167.689 52.1511 169.574 52.1088 171.195C52.0909 172.384 52.2199 173.57 52.4928 174.728L56.9319 193.494L61.3709 212.26L84.6682 205.697L107.985 199.142Z" fill="#FFC0C0" stroke="black" stroke-width="3" stroke-miterlimit="10" stroke-linecap="round"/>
<path d="M52.85 176.164C53.5028 177.446 54.1671 178.729 54.8429 180.004C55.5188 181.279 56.21 182.546 56.9089 183.805C57.4772 184.827 58.0148 185.868 58.5716 186.897C59.1284 187.926 59.7236 188.943 60.361 189.919C60.9991 190.916 61.7322 191.85 62.5498 192.707C63.3424 193.58 64.3815 194.192 65.5297 194.461C66.4009 194.614 67.2982 194.453 68.0619 194.007C68.8255 193.56 69.4059 192.857 69.6999 192.023C69.9641 191.09 69.9971 190.107 69.7959 189.158C69.6346 188.156 69.3428 187.158 69.1316 186.313C67.826 182.849 66.5217 179.386 65.2186 175.922L61.3057 165.531" stroke="black" stroke-width="3" stroke-miterlimit="10" stroke-linecap="round"/>
<path d="M69.0201 186.037C69.5575 187.643 70.4365 189.114 71.5968 190.349C72.5952 191.34 73.6781 191.843 74.688 191.735C75.1407 191.68 75.5737 191.518 75.9513 191.263C76.2067 191.094 76.4424 190.897 76.6541 190.675C77.8061 189.523 78.1901 187.845 78.263 186.159C78.2666 184.597 78.1057 183.038 77.783 181.509C76.9958 177.285 75.9475 173.061 74.9145 169.286C73.8816 165.512 72.864 162.244 72.1344 159.971" stroke="black" stroke-width="3" stroke-miterlimit="10" stroke-linecap="round"/>
<path d="M78.4205 184.524C78.7512 185.366 79.1887 186.162 79.7223 186.893C80.5364 187.999 81.7344 189.105 83.3319 189.266C83.5523 189.292 83.7746 189.299 83.9962 189.285C84.3235 189.268 84.6456 189.195 84.9485 189.07C85.874 188.686 86.5844 187.803 87.0183 186.59C87.4863 185.15 87.6267 183.624 87.4292 182.124C86.4999 177.175 85.5719 172.223 84.6452 167.267C83.7184 162.31 82.7904 157.358 81.8612 152.41" stroke="black" stroke-width="3" stroke-miterlimit="10" stroke-linecap="round"/>
<path d="M98.4691 165.934C94.6598 165.708 90.8621 165.393 87.0682 165.039C83.2742 164.686 79.4803 164.271 75.6864 163.887C74.0045 163.718 71.305 163.208 68.9011 163.342C66.4973 163.476 64.393 164.256 63.9091 166.66C63.4829 168.741 64.4083 170.012 65.8061 170.884C67.2038 171.756 69.0739 172.247 70.5254 172.754C72.9907 173.618 74.8454 174.267 76.1472 174.778C77.449 175.288 78.2016 175.657 78.4512 175.957C79.6032 177.243 79.657 178.691 79.5226 180.538C79.3882 182.385 79.0349 184.635 79.3152 187.526C79.4843 189.247 79.8502 190.943 80.4058 192.58C81.1769 194.838 82.2352 196.989 83.5546 198.977" fill="#FFC0C0"/>
<path d="M98.4691 165.934C94.6598 165.708 90.8621 165.393 87.0682 165.039C83.2742 164.686 79.4803 164.271 75.6864 163.887C74.0045 163.718 71.305 163.208 68.9011 163.342C66.4973 163.476 64.393 164.256 63.9091 166.66C63.4829 168.741 64.4083 170.012 65.8061 170.884C67.2038 171.756 69.0739 172.247 70.5254 172.754C72.9907 173.618 74.8454 174.267 76.1472 174.778C77.449 175.288 78.2016 175.657 78.4512 175.957C79.6032 177.243 79.657 178.691 79.5226 180.538C79.3882 182.385 79.0349 184.635 79.3152 187.526C79.4843 189.247 79.8502 190.943 80.4058 192.58C81.1769 194.838 82.2352 196.989 83.5546 198.977" stroke="black" stroke-width="3" stroke-miterlimit="10" stroke-linecap="round"/>
<path d="M116.11 58.6982C115.857 58.6982 115.603 58.6982 115.342 58.7251C115.081 58.752 114.839 58.7674 114.574 58.8019C114.202 58.861 113.833 58.9392 113.468 59.0362C112.613 59.2596 111.782 59.567 110.988 59.9539C109.262 60.9061 107.591 61.9548 105.984 63.095C103.588 64.7155 100.562 66.8736 97.152 69.4618C96.8192 67.1433 95.717 65.0038 94.0224 63.3869C92.2923 61.6447 89.9494 60.6483 87.4944 60.6106C86.1875 60.6312 84.8981 60.9138 83.7023 61.4414C82.5065 61.9691 81.4287 62.7311 80.5325 63.6826C78.7431 65.5296 77.6256 67.9834 77.6256 70.4064C77.6412 72.5826 78.5147 74.6649 80.0563 76.201C81.6752 77.8182 83.7928 78.8412 86.0659 79.104C86.7041 82.7926 88.5832 86.1526 91.392 88.6272C94.0071 90.8813 97.2442 92.0832 100.454 91.9027C103.745 91.703 106.322 90.0557 108.115 88.3891C109.27 87.3238 110.27 86.1008 111.084 84.7565C112.857 85.0713 114.683 84.864 116.34 84.1597C117.998 83.4555 119.415 82.2847 120.419 80.7898C120.868 80.1282 121.232 79.412 121.501 78.6586C122.353 78.6457 123.199 78.5257 124.02 78.3014C125.58 77.889 127.014 77.0971 128.194 75.9963C129.374 74.8955 130.263 73.52 130.783 71.9923C131.105 71.0919 131.3 70.151 131.363 69.1968C133.166 69.266 134.962 68.9218 136.612 68.1907C139.277 66.9811 142.022 64.3507 142.372 58.6982H116.11Z" fill="#D1B7E5" stroke="black" stroke-width="3" stroke-miterlimit="10" stroke-linecap="round"/>
<path d="M84.96 68.2752C84.96 68.5807 84.8386 68.8737 84.6226 69.0898C84.4066 69.3058 84.1135 69.4272 83.808 69.4272C83.5025 69.4272 83.2095 69.3058 82.9934 69.0898C82.7774 68.8737 82.656 68.5807 82.656 68.2752C82.6556 68.1224 82.6857 67.971 82.7443 67.83C82.803 67.6889 82.8892 67.5609 82.9978 67.4534C83.1056 67.3455 83.2337 67.2601 83.3748 67.202C83.5158 67.144 83.667 67.1146 83.8195 67.1155C83.9721 67.1146 84.1232 67.144 84.2643 67.202C84.4054 67.2601 84.5335 67.3455 84.6413 67.4534C84.8501 67.6756 84.9644 67.9703 84.96 68.2752Z" fill="black"/>
<path d="M131.366 69.1968H123.137H114.912" stroke="black" stroke-width="3" stroke-miterlimit="10" stroke-linecap="round"/>
<path d="M121.505 78.6586H116.609H111.709" stroke="black" stroke-width="3" stroke-miterlimit="10" stroke-linecap="round"/>
<path d="M109.759 86.7993L117.308 89.5296L124.854 92.2636" fill="#D1B7E5"/>
<path d="M109.759 86.7993L117.308 89.5296L124.854 92.2636" stroke="black" stroke-width="3" stroke-miterlimit="10" stroke-linecap="round"/>
<path d="M278.484 320.525C273.894 318.413 269.225 316.159 264.476 313.763C259.727 311.366 254.912 308.815 250.03 306.109C247.962 304.96 245.924 303.808 243.917 302.653C241.91 301.499 239.933 300.338 237.988 299.171C239.232 291.186 240.477 283.204 241.724 275.224C242.971 267.245 244.216 259.263 245.46 251.278L266.826 258.432L288.192 265.59" stroke="black" stroke-width="3" stroke-miterlimit="10" stroke-linecap="round"/>
<path d="M234.824 141.999L224.525 137.633L214.226 133.267C213.218 136.11 212.588 139.073 212.352 142.08C211.822 148.569 213.42 155.055 216.906 160.554C217.889 162.105 219.007 163.566 220.247 164.92C222.259 163.46 224.117 161.799 225.792 159.963C228.972 156.458 231.466 152.388 233.146 147.963C233.874 146.026 234.435 144.031 234.824 141.999Z" fill="black" stroke="black" stroke-width="3" stroke-miterlimit="10" stroke-linecap="round"/>
<path d="M214.84 156.672C214.51 155.904 214.276 155.297 214.107 154.794C213.938 154.291 213.838 153.911 213.769 153.642C213.719 153.443 213.677 153.258 213.642 153.089C213.608 152.92 213.581 152.782 213.558 152.659L213.777 152.851L214.049 153.07C214.049 153.07 214.141 153.143 214.287 153.243C214.433 153.343 214.633 153.481 214.836 153.604C215.96 154.278 217.23 154.671 218.538 154.749C219.846 154.826 221.153 154.586 222.348 154.049C223.543 153.513 224.591 152.695 225.402 151.665C226.213 150.636 226.762 149.426 227.004 148.138C227.246 146.851 227.173 145.523 226.792 144.27C226.41 143.017 225.731 141.874 224.812 140.94C223.893 140.006 222.762 139.308 221.515 138.905C220.269 138.502 218.943 138.407 217.651 138.628C215.731 138.962 213.983 139.947 212.701 141.416C212.701 140.797 212.725 140.11 212.794 139.369C212.865 138.566 212.981 137.767 213.139 136.977C213.281 136.255 213.454 135.575 213.642 134.953C213.83 134.331 214.026 133.759 214.226 133.244L196.65 125.791L179.075 118.337C178.634 118.916 178.204 119.514 177.784 120.131C177.364 120.748 176.965 121.38 176.586 122.028C171.782 130.18 170.442 139.331 172.155 147.54C173.868 155.75 178.644 163.02 186.067 167.393C191.283 170.455 197.323 171.813 203.347 171.279C209.456 170.729 215.299 168.519 220.243 164.89C219.467 164.033 218.738 163.136 218.058 162.202C217.452 161.368 216.956 160.612 216.561 159.959C216.342 159.598 216.069 159.133 215.773 158.577C215.478 158.02 215.159 157.402 214.84 156.672Z" fill="#FFC0C0" stroke="black" stroke-width="3" stroke-miterlimit="10" stroke-linecap="round"/>
<path d="M209.399 151.968C208.888 152.835 208.092 153.498 207.147 153.844C206.201 154.19 205.165 154.197 204.215 153.865C203.265 153.533 202.46 152.881 201.936 152.022C201.412 151.162 201.203 150.148 201.343 149.151C201.484 148.155 201.965 147.237 202.706 146.556C203.447 145.875 204.401 145.471 205.406 145.414C206.411 145.357 207.404 145.651 208.217 146.244C209.03 146.838 209.612 147.695 209.864 148.669C210.007 149.223 210.039 149.799 209.96 150.365C209.88 150.931 209.689 151.476 209.399 151.968Z" fill="#EF3F3F" stroke="black" stroke-width="3" stroke-miterlimit="10" stroke-linecap="round"/>
<path d="M181.563 151.868C181.055 152.737 180.261 153.403 179.317 153.752C178.373 154.102 177.337 154.113 176.386 153.784C175.434 153.455 174.627 152.806 174.1 151.949C173.573 151.091 173.36 150.077 173.497 149.08C173.634 148.083 174.113 147.164 174.851 146.48C175.59 145.796 176.542 145.389 177.547 145.329C178.552 145.269 179.547 145.559 180.361 146.15C181.176 146.741 181.761 147.596 182.016 148.57C182.308 149.686 182.145 150.872 181.563 151.868Z" fill="#EF3F3F" stroke="black" stroke-width="3" stroke-miterlimit="10" stroke-linecap="round"/>
<path d="M181.851 139.546C181.738 139.751 181.584 139.932 181.4 140.078C181.215 140.223 181.004 140.33 180.777 140.392C180.551 140.454 180.314 140.47 180.081 140.439C179.849 140.408 179.624 140.33 179.422 140.211C179.22 140.092 179.044 139.933 178.904 139.745C178.764 139.556 178.663 139.341 178.608 139.113C178.553 138.885 178.544 138.648 178.582 138.416C178.62 138.184 178.704 137.962 178.829 137.764C179.066 137.363 179.452 137.073 179.902 136.956C180.353 136.84 180.831 136.906 181.233 137.142C181.632 137.38 181.922 137.766 182.039 138.217C182.097 138.44 182.11 138.672 182.077 138.9C182.045 139.128 181.968 139.347 181.851 139.546Z" fill="#231F20"/>
<path d="M200.064 141.884C199.951 142.09 199.797 142.271 199.613 142.416C199.429 142.562 199.217 142.668 198.99 142.73C198.764 142.793 198.527 142.808 198.295 142.777C198.062 142.746 197.838 142.669 197.635 142.55C197.433 142.43 197.257 142.272 197.117 142.083C196.977 141.894 196.876 141.68 196.821 141.451C196.766 141.223 196.757 140.986 196.795 140.755C196.833 140.523 196.917 140.301 197.042 140.102C197.279 139.703 197.664 139.413 198.114 139.296C198.563 139.18 199.041 139.246 199.442 139.48C199.641 139.597 199.814 139.752 199.953 139.936C200.092 140.12 200.193 140.33 200.251 140.553C200.309 140.777 200.322 141.009 200.29 141.237C200.258 141.466 200.181 141.685 200.064 141.884Z" fill="#231F20"/>
<path d="M183.901 129.408C185.571 129.268 187.248 129.248 188.92 129.347C194.106 129.657 199.156 131.132 203.693 133.663" stroke="black" stroke-width="3" stroke-miterlimit="10" stroke-linecap="round"/>
<path d="M189.005 129.88L187.496 138.063L185.983 146.243L187.154 146.362L188.321 146.485" stroke="black" stroke-width="3" stroke-miterlimit="10" stroke-linecap="round"/>
<path d="M220.873 108.38C214.038 104.352 206.154 103.477 198.697 105.308C190.855 107.286 183.928 111.894 179.075 118.364L206.949 130.176L234.824 141.996C236.126 135.538 235.53 128.841 233.107 122.715C230.727 116.715 226.424 111.674 220.873 108.38Z" fill="#F9851C" stroke="black" stroke-width="3" stroke-miterlimit="10" stroke-linecap="round"/>
<path d="M215.401 147.64L218.669 147.11L221.937 146.58" stroke="black" stroke-width="3" stroke-miterlimit="10" stroke-linecap="round"/>
<path d="M189.661 122.845C188.554 125.881 186.559 128.512 183.936 130.399C181.45 132.205 178.441 133.149 175.369 133.087C174.221 133.051 173.082 132.865 171.982 132.534C170.999 132.232 170.052 131.825 169.156 131.32C166.879 130.042 165.006 128.152 163.749 125.864C162.845 124.228 162.316 122.411 162.201 120.545C162.086 118.68 162.388 116.812 163.085 115.077C163.515 114.012 164.097 113.015 164.813 112.116C166.401 110.163 168.502 108.689 170.88 107.862C173.276 107.036 175.872 106.956 178.241 108.088C179.642 108.782 180.843 109.821 181.732 111.107C182.321 111.945 182.801 112.854 183.16 113.814C182.722 114.221 182.273 114.662 181.82 115.131C181.367 115.599 180.91 116.106 180.449 116.644C180.2 116.932 179.962 117.224 179.735 117.508C179.508 117.792 179.29 118.076 179.078 118.356L184.374 120.599L189.661 122.845Z" fill="black" stroke="black" stroke-width="3" stroke-miterlimit="10" stroke-linecap="round"/>
<path d="M186.927 110.715L211.158 121.628L235.392 132.538" stroke="black" stroke-width="3" stroke-miterlimit="10" stroke-linecap="round"/>
<path d="M194.258 114.017L191.712 118.326L189.17 122.638" stroke="black" stroke-width="3" stroke-miterlimit="10" stroke-linecap="round"/>
<path d="M203.796 118.391L201.393 122.465L198.989 126.539" stroke="black" stroke-width="3" stroke-miterlimit="10" stroke-linecap="round"/>
<path d="M215.424 123.763L213.062 127.768L210.705 131.77" stroke="black" stroke-width="3" stroke-miterlimit="10" stroke-linecap="round"/>
<path d="M227.343 129.112L225.108 132.902L222.877 136.689" stroke="black" stroke-width="3" stroke-miterlimit="10" stroke-linecap="round"/>
<path d="M185.856 152.544C186.621 153.381 187.585 154.011 188.659 154.376C190.41 154.952 192.883 154.844 195.671 152.114" stroke="black" stroke-width="3" stroke-miterlimit="10" stroke-linecap="round"/>
<path d="M265.893 226.403L268.842 243.007C269.82 248.544 270.802 254.08 271.788 259.615C271.791 259.621 271.793 259.627 271.793 259.634C271.793 259.641 271.791 259.647 271.788 259.653C271.781 259.657 271.774 259.659 271.766 259.659C271.759 259.659 271.752 259.657 271.745 259.653L264.296 257.28L256.865 254.907C256.854 254.903 256.845 254.896 256.84 254.886C256.834 254.876 256.832 254.864 256.835 254.853L261.324 240.618C262.819 235.877 264.314 231.132 265.809 226.383C265.812 226.374 265.819 226.366 265.827 226.361C265.835 226.356 265.845 226.353 265.855 226.353C265.866 226.355 265.877 226.361 265.884 226.37C265.891 226.379 265.894 226.391 265.893 226.403Z" fill="black" stroke="black" stroke-width="3" stroke-miterlimit="10" stroke-linecap="round"/>
</svg>
