<svg width="757" height="757" viewBox="0 0 757 757" fill="none" xmlns="http://www.w3.org/2000/svg">
<path d="M522.852 552.519L564.139 553.004L605.418 553.48C610.836 553.551 616.239 552.925 621.497 551.618C626.746 550.3 631.787 548.262 636.478 545.562C640.089 543.499 643.459 541.039 646.523 538.227C649.993 535.03 653.018 531.381 655.517 527.379C661.294 518.054 664.191 507.231 663.844 496.266C663.498 484.993 660.026 474.038 653.813 464.624C639.032 442.373 624.25 420.127 609.468 397.887L565.101 331.157C559.308 322.409 552.618 314.291 545.138 306.933C537.666 299.58 529.399 293.081 520.491 287.554C517.614 285.775 514.586 284.034 511.407 282.376C508.227 280.718 504.919 279.121 501.46 277.63C485.524 270.824 468.485 266.967 451.172 266.244C435.275 265.487 420.294 266.888 406.244 268.235C385.207 270.256 376.577 272.081 365.881 275.313C355.184 278.546 342.414 283.163 313.133 290.786C289.712 296.842 273.769 301.324 262.301 304.98C250.832 308.636 243.678 311.521 237.842 314.458C236.858 314.95 235.881 315.465 234.814 316.047C233.746 316.63 232.588 317.289 231.256 318.061C220.517 324.308 210.773 332.126 202.346 341.256C193.694 350.491 185.367 361.558 175.427 375.472C168.228 385.57 165.586 389.643 162.18 394.791C158.773 399.938 154.716 406.146 144.708 420.582C137.032 431.619 130.802 440.317 125.026 448.946C119.25 457.576 113.86 466.145 107.948 476.91C102.483 486.827 98.5311 495.032 96.1012 502.648C93.6977 509.851 92.7508 517.46 93.3154 525.032C93.483 527.701 93.8091 530.358 94.2919 532.988C94.9373 536.367 96.0002 539.652 97.4562 542.769C102.513 553.594 111.779 561.429 122.392 566.425C132.697 571.246 144.006 573.53 155.374 573.087C160.313 572.835 165.203 571.989 169.939 570.566C173.924 569.324 177.843 567.879 181.68 566.236C187.935 563.688 193.93 560.544 199.583 556.849C203.882 554.032 207.978 550.916 211.839 547.523L220.681 539.688L229.522 531.853L229.772 542.708L230.014 553.564L376.418 553.041L522.852 552.519Z" fill="#104FC1" stroke="black" stroke-width="3" stroke-miterlimit="10" stroke-linecap="round"/>
<path d="M496.251 404.571L512.148 429.552L528.045 454.533H503.064C501.924 446.221 500.778 437.909 499.628 429.597L496.198 404.662C496.198 404.662 496.198 404.616 496.198 404.609C496.199 404.603 496.201 404.597 496.205 404.592C496.208 404.587 496.212 404.582 496.217 404.579C496.222 404.575 496.227 404.573 496.233 404.571C496.239 404.57 496.245 404.57 496.251 404.571Z" fill="black" stroke="black" stroke-width="3" stroke-miterlimit="10" stroke-linecap="round"/>
<path d="M503.034 454.473H558.219" stroke="black" stroke-width="3" stroke-miterlimit="10" stroke-linecap="round"/>
<path d="M342.05 323.481L354.594 339.514L367.13 355.555L370.763 335.699L374.389 315.851L358.22 319.666L342.05 323.481Z" fill="#FFF8F8" stroke="black" stroke-width="3" stroke-miterlimit="10" stroke-linecap="round"/>
<path d="M291.665 296.464L304.322 360.454L316.979 424.443L342.058 389.999L367.13 355.556L341.339 322.558L315.548 289.561L303.602 293.012L291.665 296.464Z" fill="#104FC1" stroke="black" stroke-width="3" stroke-miterlimit="10" stroke-linecap="round"/>
<path d="M381.801 273.837L374.465 314.715L367.13 355.593L411.036 377.13L454.942 398.674L430.589 333.474L406.206 268.235L394.003 271.006L381.801 273.837Z" fill="#104FC1" stroke="black" stroke-width="3" stroke-miterlimit="10" stroke-linecap="round"/>
<path d="M367.145 357.069V553.564H433.519L400.4 455.305L367.289 357.046C367.282 357.03 367.271 357.016 367.256 357.006C367.241 356.997 367.223 356.992 367.206 356.993C367.188 356.997 367.173 357.006 367.162 357.02C367.151 357.034 367.145 357.051 367.145 357.069Z" fill="#FFF8F8" stroke="black" stroke-width="3" stroke-miterlimit="10" stroke-linecap="round"/>
<path d="M438.136 392.656C438.137 391.133 437.838 389.624 437.256 388.217C436.673 386.809 435.819 385.53 434.742 384.453C433.665 383.376 432.386 382.522 430.978 381.939C429.571 381.357 428.062 381.058 426.539 381.059H242.081C240.558 381.058 239.049 381.357 237.642 381.939C236.234 382.522 234.955 383.376 233.878 384.453C232.801 385.53 231.947 386.809 231.365 388.217C230.782 389.624 230.483 391.133 230.484 392.656V407.327H438.136V392.656Z" fill="#14AF6C" stroke="black" stroke-width="3" stroke-miterlimit="10" stroke-linecap="round"/>
<path d="M230.484 407.327V526.933C230.471 530.221 231.695 533.393 233.913 535.82C234.951 536.969 236.216 537.889 237.629 538.522C239.042 539.156 240.571 539.488 242.119 539.499H426.539C428.087 539.488 429.616 539.156 431.029 538.522C432.442 537.889 433.707 536.969 434.745 535.82C436.951 533.385 438.161 530.211 438.136 526.925V407.319H230.484V407.327Z" fill="#FFF8F8" stroke="black" stroke-width="3" stroke-miterlimit="10" stroke-linecap="round"/>
<path d="M528.053 454.472L512.095 429.438L496.138 404.396" stroke="black" stroke-width="3" stroke-miterlimit="10" stroke-linecap="round"/>
<path d="M143.156 422.974L182.921 445.245L222.687 467.516C222.687 467.516 226.025 462.217 231.014 454.647C236.002 447.077 242.641 437.236 249.227 428.243C252.497 423.769 255.98 419.461 259.628 415.306C263.277 411.15 267.107 407.138 271.059 403.254C272.762 401.574 274.723 399.31 275.601 397.032C276.479 394.753 276.313 392.49 273.731 390.771C272.415 389.904 270.886 389.416 269.31 389.363C267.741 389.309 266.183 389.636 264.768 390.317L249.068 397.887L233.368 405.457C232.801 405.733 232.207 405.951 231.597 406.108C230.988 406.261 230.362 406.34 229.734 406.343C229.153 406.351 228.572 406.282 228.008 406.138C227.393 405.977 226.813 405.702 226.298 405.328C225.599 404.774 225.026 404.078 224.616 403.286C224.206 402.494 223.969 401.624 223.921 400.733C223.75 398.557 224.342 396.39 225.594 394.602L232.755 381.733L239.924 368.864C240.593 367.668 241.65 366.736 242.92 366.223C244.191 365.709 245.599 365.645 246.911 366.04L266.184 371.846L285.457 377.66C285.457 377.66 286.789 378.107 288.788 378.553C291.202 379.114 293.668 379.426 296.146 379.484C297.89 379.533 299.594 378.962 300.957 377.873C302.319 376.783 303.251 375.246 303.587 373.534C304.005 371.836 303.812 370.045 303.043 368.474C302.273 366.904 300.976 365.654 299.378 364.942L299.242 364.874L299.098 364.814C296.07 363.451 293.095 362.073 290.12 360.643C287.145 359.212 284.208 357.728 281.301 356.161L265.927 347.88L250.567 339.628C249.288 338.932 248.008 338.22 246.744 337.501C245.48 336.782 244.216 336.048 242.959 335.313C239.818 333.429 236.347 332.157 232.732 331.566C228.553 330.983 223.981 331.687 220.181 335.533C219.299 334.699 218.318 333.977 217.259 333.383C215.108 332.091 212.591 331.543 210.098 331.824C208.246 332.108 206.502 332.876 205.041 334.049C203.883 334.963 202.838 336.013 201.93 337.176C199.008 340.794 191.862 350.862 181.672 365.722C171.483 380.582 158.251 400.219 143.156 422.974Z" fill="#FFC0C0" stroke="black" stroke-width="3" stroke-miterlimit="10" stroke-linecap="round"/>
<path d="M220.181 335.532L211.566 347.614L202.952 359.696" stroke="black" stroke-width="3" stroke-miterlimit="10" stroke-linecap="round"/>
<path d="M222.687 467.516C218.084 475.348 213.479 483.17 208.871 490.983L195.064 514.533" stroke="black" stroke-width="3" stroke-miterlimit="10" stroke-linecap="round"/>
<path d="M270.824 445.684L259.651 465.003L248.516 484.329C248.078 485.086 247.847 485.944 247.847 486.819C247.847 487.693 248.077 488.552 248.515 489.308C248.952 490.065 249.582 490.694 250.339 491.13C251.097 491.566 251.956 491.795 252.83 491.793H297.448C298.322 491.795 299.182 491.566 299.939 491.13C300.697 490.694 301.326 490.065 301.764 489.308C302.201 488.552 302.432 487.693 302.431 486.819C302.431 485.944 302.201 485.086 301.763 484.329L290.605 465.003L279.454 445.684C279.017 444.926 278.388 444.297 277.631 443.859C276.873 443.422 276.014 443.191 275.139 443.191C274.264 443.191 273.405 443.422 272.648 443.859C271.89 444.297 271.261 444.926 270.824 445.684Z" fill="#F7CE21" stroke="black" stroke-width="3" stroke-miterlimit="10" stroke-linecap="round"/>
<path d="M275.056 478.076C274.489 478.077 273.945 477.854 273.542 477.455C273.343 477.257 273.186 477.021 273.08 476.761C272.973 476.501 272.919 476.222 272.921 475.941V454.2C272.92 453.921 272.975 453.644 273.081 453.385C273.188 453.127 273.344 452.892 273.542 452.694C273.74 452.496 273.975 452.34 274.233 452.233C274.492 452.127 274.769 452.072 275.048 452.073C275.612 452.075 276.152 452.3 276.55 452.698C276.949 453.097 277.174 453.637 277.176 454.2V475.941C277.174 476.505 276.949 477.045 276.55 477.443C276.152 477.842 275.612 478.067 275.048 478.069L275.056 478.076Z" fill="black"/>
<path d="M277.554 484.828C277.561 485.408 277.367 485.972 277.005 486.425C276.643 486.877 276.135 487.19 275.568 487.31C275.001 487.431 274.41 487.35 273.895 487.084C273.381 486.817 272.975 486.38 272.746 485.847C272.517 485.315 272.48 484.719 272.642 484.163C272.803 483.606 273.152 483.122 273.63 482.794C274.107 482.466 274.684 482.313 275.262 482.363C275.839 482.412 276.382 482.66 276.797 483.064C277.035 483.293 277.224 483.567 277.354 483.87C277.484 484.173 277.552 484.499 277.554 484.828Z" fill="black"/>
<path d="M313.277 479.998V473.238L323.035 460.104L332.792 446.963H341.521V472.951H346.82V479.998H341.521V488.197H333.315V479.998H313.277ZM333.951 456.471L327.781 464.722L321.596 472.951H333.958V456.471H333.951Z" fill="black"/>
<path d="M351.392 467.462C351.392 460.574 352.691 455.406 355.29 451.959C357.889 448.512 361.788 446.789 366.986 446.789C369.428 446.726 371.855 447.199 374.094 448.174C376.054 449.076 377.716 450.518 378.886 452.33C380.165 454.342 381.087 456.56 381.611 458.886C382.833 464.554 382.833 470.417 381.611 476.085C381.091 478.416 380.169 480.64 378.886 482.655C377.716 484.468 376.054 485.909 374.094 486.811C371.855 487.787 369.428 488.26 366.986 488.197C361.793 488.197 357.894 486.471 355.29 483.019C352.686 479.567 351.387 474.381 351.392 467.462ZM374.495 467.462C374.512 465.616 374.383 463.77 374.109 461.944C373.912 460.534 373.528 459.157 372.966 457.849C372.506 456.778 371.709 455.887 370.695 455.313C369.55 454.716 368.269 454.427 366.978 454.472C365.666 454.423 364.362 454.713 363.193 455.313C362.178 455.885 361.38 456.776 360.922 457.849C360.358 459.156 359.971 460.534 359.772 461.944C359.505 463.771 359.378 465.616 359.393 467.462C359.378 469.327 359.504 471.189 359.772 473.034C359.97 474.447 360.357 475.827 360.922 477.137C361.38 478.209 362.178 479.1 363.193 479.673C364.362 480.275 365.665 480.567 366.978 480.521C368.27 480.564 369.55 480.272 370.695 479.673C371.711 479.1 372.509 478.209 372.966 477.137C373.53 475.827 373.914 474.447 374.109 473.034C374.384 471.19 374.513 469.327 374.495 467.462Z" fill="black"/>
<path d="M387.433 479.998V473.238L397.19 460.104L406.956 446.963H415.676V472.951H420.975V479.998H415.676V488.197H407.478V479.998H387.433ZM408.106 456.471L401.967 464.722L395.79 472.951H408.144V456.471H408.106Z" fill="black"/>
<path d="M596.819 353.292H502.436C499.871 353.29 497.411 352.27 495.597 350.456C493.784 348.642 492.764 346.183 492.762 343.617V246.873C492.764 244.307 493.784 241.848 495.597 240.034C497.411 238.22 499.871 237.2 502.436 237.198H596.819C599.384 237.2 601.844 238.22 603.657 240.034C605.471 241.848 606.491 244.307 606.493 246.873V343.617C606.491 346.183 605.471 348.642 603.657 350.456C601.844 352.27 599.384 353.29 596.819 353.292Z" fill="#D1B7E5" stroke="black" stroke-width="3" stroke-miterlimit="10" stroke-linecap="round"/>
<path d="M584.025 295.23C584.026 303.188 581.267 310.9 576.218 317.052C571.17 323.204 564.145 327.415 556.339 328.968C548.534 330.521 540.432 329.319 533.413 325.568C526.395 321.817 520.894 315.748 517.848 308.396C514.802 301.044 514.4 292.863 516.71 285.247C519.02 277.631 523.899 271.052 530.516 266.631C537.133 262.209 545.078 260.219 552.998 260.999C560.918 261.778 568.322 265.28 573.95 270.907C577.149 274.098 579.686 277.889 581.415 282.063C583.144 286.237 584.031 290.712 584.025 295.23Z" fill="#EF3F3F" stroke="black" stroke-width="3" stroke-miterlimit="10" stroke-linecap="round"/>
<path d="M552.61 296.85L557.371 291.627L562.141 286.403C562.614 285.884 562.863 285.198 562.831 284.496C562.799 283.794 562.489 283.134 561.97 282.66C561.451 282.186 560.765 281.938 560.063 281.97C559.361 282.002 558.701 282.311 558.227 282.83L553.685 287.849L549.143 292.868L544.601 287.796L540.059 282.717C539.826 282.457 539.545 282.246 539.23 282.095C538.916 281.944 538.575 281.857 538.227 281.839C537.88 281.816 537.532 281.862 537.203 281.975C536.874 282.088 536.571 282.266 536.312 282.497C536.052 282.73 535.841 283.011 535.69 283.326C535.539 283.64 535.452 283.981 535.434 284.329C535.411 284.677 535.458 285.025 535.573 285.354C535.687 285.683 535.866 285.986 536.1 286.244L540.793 291.543L545.494 296.842L540.733 302.066L535.964 307.289C535.491 307.809 535.244 308.495 535.275 309.197C535.297 309.713 535.471 310.211 535.774 310.629C536.076 311.047 536.495 311.368 536.978 311.551C537.475 311.738 538.016 311.772 538.533 311.65C539.049 311.527 539.518 311.253 539.877 310.862L544.457 305.843L548.999 300.824L553.541 305.904L558.083 310.976C558.338 311.26 558.65 311.487 558.999 311.642C559.336 311.789 559.699 311.864 560.066 311.861C560.382 311.863 560.695 311.807 560.99 311.695C561.3 311.584 561.585 311.415 561.83 311.195C562.09 310.964 562.301 310.684 562.452 310.371C562.602 310.058 562.69 309.718 562.708 309.371C562.732 309.024 562.685 308.676 562.572 308.347C562.459 308.018 562.282 307.715 562.05 307.456L557.349 302.157L552.61 296.85Z" fill="#FFF8F8" stroke="black" stroke-width="3" stroke-miterlimit="10" stroke-linecap="round"/>
<path d="M199.447 277.418H130.257C127.031 277.408 123.94 276.121 121.661 273.839C119.381 271.556 118.098 268.464 118.092 265.238V196.063C118.096 192.835 119.381 189.74 121.664 187.458C123.948 185.175 127.044 183.893 130.272 183.891H199.462C202.688 183.895 205.78 185.179 208.059 187.461C210.339 189.744 211.619 192.837 211.619 196.063V265.253C211.617 268.481 210.335 271.577 208.052 273.861C205.77 276.144 202.675 277.429 199.447 277.433V277.418Z" fill="#F7CE21" stroke="black" stroke-width="3" stroke-miterlimit="10" stroke-linecap="round"/>
<path d="M155.685 216.411C155.687 216.85 155.601 217.285 155.434 217.69C155.266 218.095 155.019 218.464 154.708 218.773C154.16 219.323 153.439 219.666 152.666 219.744C151.894 219.822 151.118 219.629 150.472 219.198C149.826 218.768 149.349 218.127 149.123 217.384C148.897 216.641 148.935 215.843 149.232 215.126C149.529 214.408 150.065 213.816 150.75 213.45C151.434 213.084 152.225 212.967 152.986 213.118C153.747 213.27 154.433 213.681 154.925 214.282C155.417 214.882 155.685 215.635 155.685 216.411Z" fill="black"/>
<path d="M155.685 239.969C155.682 240.739 155.412 241.484 154.921 242.078C154.431 242.671 153.75 243.076 152.994 243.224C152.239 243.373 151.455 243.254 150.777 242.89C150.099 242.525 149.568 241.937 149.274 241.225C148.981 240.513 148.943 239.722 149.168 238.985C149.392 238.248 149.865 237.612 150.505 237.185C151.146 236.758 151.915 236.566 152.681 236.641C153.447 236.717 154.163 237.055 154.708 237.6C155.02 237.91 155.266 238.28 155.434 238.686C155.602 239.093 155.687 239.529 155.685 239.969Z" fill="black"/>
<path d="M180.711 208.175C178.248 209.818 176.052 211.83 174.201 214.14C170.321 218.754 168.19 224.588 168.183 230.617C168.176 236.646 170.293 242.484 174.163 247.107C176.019 249.452 178.228 251.495 180.711 253.163" stroke="black" stroke-width="3" stroke-miterlimit="10" stroke-linecap="round"/>
<path d="M404.783 243.497L382.732 243.944L360.688 244.39C361.161 250.313 362.416 256.147 364.42 261.741C368.698 273.842 376.804 284.219 387.508 291.302C390.529 293.297 393.718 295.025 397.039 296.464C399.468 292.229 401.459 287.757 402.981 283.118C404.566 278.284 405.647 273.3 406.206 268.243C406.674 264.046 406.786 259.817 406.539 255.601C406.294 251.525 405.706 247.476 404.783 243.497Z" fill="black" stroke="black" stroke-width="3" stroke-miterlimit="10" stroke-linecap="round"/>
<path d="M380.665 286.017C379.469 284.927 378.545 283.996 377.834 283.231C377.122 282.467 376.638 281.861 376.32 281.43C376.07 281.112 375.843 280.809 375.646 280.544C375.449 280.279 375.283 280.037 375.147 279.832C375.313 279.885 375.495 279.946 375.699 279.999C375.904 280.052 376.123 280.12 376.358 280.173L376.933 280.294C377.281 280.362 377.743 280.446 378.212 280.499C380.78 280.812 383.385 280.499 385.806 279.586C388.226 278.673 390.389 277.187 392.11 275.256C393.831 273.325 395.059 271.006 395.689 268.497C396.318 265.988 396.331 263.363 395.725 260.849C395.12 258.334 393.914 256.003 392.211 254.055C390.509 252.108 388.36 250.602 385.948 249.666C383.537 248.73 380.935 248.392 378.364 248.68C375.794 248.969 373.331 249.876 371.187 251.324C368.001 253.47 365.651 256.649 364.533 260.325C364.034 259.212 363.519 257.963 363.019 256.54C362.505 255.037 362.071 253.508 361.717 251.96C361.392 250.537 361.157 249.181 360.96 247.91C360.763 246.638 360.688 245.449 360.635 244.359L323.004 245.116L285.381 245.873C285.048 247.281 284.761 248.705 284.503 250.143C284.246 251.581 284.042 253.042 283.875 254.518C281.808 273.057 286.774 290.612 296.479 303.996C306.184 317.38 320.627 326.6 337.508 328.492C349.364 329.791 361.329 327.362 371.74 321.543C382.289 315.627 391.019 306.939 396.986 296.418C394.915 295.516 392.894 294.506 390.93 293.39C389.166 292.383 387.667 291.415 386.433 290.567C385.745 290.09 384.882 289.469 383.897 288.712C382.913 287.955 381.823 287.062 380.665 286.017Z" fill="#FFC0C0" stroke="black" stroke-width="3" stroke-miterlimit="10" stroke-linecap="round"/>
<path d="M367.077 281.929C366.857 283.903 365.96 285.74 364.538 287.127C363.116 288.514 361.257 289.364 359.278 289.534C357.299 289.703 355.322 289.181 353.685 288.057C352.048 286.932 350.851 285.275 350.299 283.367C349.747 281.459 349.874 279.418 350.657 277.593C351.441 275.768 352.834 274.271 354.598 273.358C356.362 272.445 358.388 272.171 360.331 272.584C362.273 272.997 364.013 274.071 365.253 275.624C365.957 276.503 366.481 277.512 366.794 278.594C367.107 279.677 367.203 280.81 367.077 281.929Z" fill="#EF3F3F" stroke="black" stroke-width="3" stroke-miterlimit="10" stroke-linecap="round"/>
<path d="M316.926 304.193C316.706 306.167 315.809 308.004 314.387 309.391C312.965 310.777 311.106 311.628 309.126 311.798C307.147 311.967 305.171 311.445 303.533 310.321C301.896 309.196 300.7 307.538 300.148 305.63C299.595 303.722 299.722 301.682 300.506 299.857C301.29 298.032 302.683 296.535 304.446 295.622C306.21 294.708 308.236 294.435 310.179 294.848C312.122 295.261 313.862 296.335 315.101 297.887C315.805 298.767 316.328 299.776 316.641 300.858C316.954 301.94 317.051 303.074 316.926 304.193Z" fill="#EF3F3F" stroke="black" stroke-width="3" stroke-miterlimit="10" stroke-linecap="round"/>
<path d="M307.509 281.794C307.425 282.589 307.069 283.331 306.499 283.894C305.93 284.456 305.184 284.804 304.387 284.878C303.591 284.952 302.793 284.747 302.13 284.299C301.467 283.851 300.98 283.187 300.752 282.42C300.524 281.653 300.569 280.831 300.878 280.093C301.188 279.356 301.744 278.748 302.452 278.374C303.159 278.001 303.974 277.884 304.758 278.043C305.542 278.203 306.247 278.629 306.752 279.25C307.04 279.602 307.256 280.009 307.386 280.446C307.516 280.882 307.558 281.341 307.509 281.794Z" fill="#231F20"/>
<path d="M342.164 271.317C342.052 272.222 341.588 273.048 340.873 273.614C340.158 274.181 339.248 274.443 338.341 274.345C337.658 274.269 337.013 273.992 336.487 273.549C335.962 273.106 335.58 272.517 335.39 271.856C335.2 271.196 335.211 270.494 335.421 269.839C335.631 269.185 336.031 268.608 336.569 268.181C337.108 267.754 337.762 267.497 338.447 267.443C339.132 267.388 339.818 267.538 340.417 267.874C341.017 268.21 341.503 268.717 341.814 269.33C342.125 269.943 342.247 270.634 342.164 271.317Z" fill="#231F20"/>
<path d="M303.02 261.922C305.909 260.318 308.912 258.929 312.005 257.766C321.578 254.127 331.849 252.701 342.05 253.595" stroke="black" stroke-width="3" stroke-miterlimit="10" stroke-linecap="round"/>
<path d="M312.588 258.645L316.464 274.572L320.34 290.507L322.543 289.78L324.745 289.061" stroke="black" stroke-width="3" stroke-miterlimit="10" stroke-linecap="round"/>
<path d="M352.573 194.269C337.032 192.528 322.141 197.297 310.181 206.593C297.671 216.481 288.933 230.363 285.427 245.919L345.101 244.708L404.776 243.497C401.913 230.824 395.437 219.254 386.131 210.189C377.012 201.318 365.211 195.72 352.573 194.269Z" fill="#F9851C" stroke="black" stroke-width="3" stroke-miterlimit="10" stroke-linecap="round"/>
<path d="M374.39 269.302L379.84 265.714L385.29 262.126" stroke="black" stroke-width="3" stroke-miterlimit="10" stroke-linecap="round"/>
<path d="M308.099 245.457C308.55 251.797 307.086 258.127 303.898 263.625C300.878 268.875 296.223 272.991 290.643 275.344C288.551 276.208 286.354 276.793 284.11 277.085C276.939 278.002 269.694 276.093 263.905 271.763C260.959 269.55 258.543 266.707 256.832 263.443C255.122 260.178 254.161 256.574 254.019 252.891C253.93 250.63 254.172 248.368 254.738 246.176C256.023 241.396 258.606 237.065 262.202 233.663C265.851 230.242 270.484 227.986 275.624 228.13C278.703 228.251 281.701 229.152 284.337 230.749C286.076 231.78 287.676 233.029 289.098 234.466C288.639 235.556 288.187 236.706 287.743 237.918C287.312 239.129 286.888 240.408 286.494 241.74C286.282 242.497 286.093 243.179 285.911 243.875C285.73 244.572 285.563 245.253 285.412 245.927L296.767 245.7L308.099 245.457Z" fill="black" stroke="black" stroke-width="3" stroke-miterlimit="10" stroke-linecap="round"/>
<path d="M293.391 225.836L345.782 225.927L398.174 226.018" stroke="black" stroke-width="3" stroke-miterlimit="10" stroke-linecap="round"/>
<path d="M309.234 225.866L308.144 235.669L307.047 245.48" stroke="black" stroke-width="3" stroke-miterlimit="10" stroke-linecap="round"/>
<path d="M329.923 226.048L328.886 235.314L327.849 244.579" stroke="black" stroke-width="3" stroke-miterlimit="10" stroke-linecap="round"/>
<path d="M355.177 226.335L354.155 235.434L353.141 244.541" stroke="black" stroke-width="3" stroke-miterlimit="10" stroke-linecap="round"/>
<path d="M380.93 226.343L379.969 234.957L379.007 243.58" stroke="black" stroke-width="3" stroke-miterlimit="10" stroke-linecap="round"/>
<path d="M328.886 307.6C329.211 306.409 329.673 305.261 330.264 304.178C331.137 302.573 332.317 301.155 333.739 300.007C335.928 298.277 338.575 297.225 341.354 296.979C344.295 296.71 347.256 297.181 349.969 298.349" stroke="black" stroke-width="3" stroke-miterlimit="10" stroke-linecap="round"/>
<path d="M474.881 451.233C473.176 451.039 471.484 450.738 469.817 450.332C468.15 449.926 466.514 449.405 464.919 448.773C464.004 448.413 463.112 447.999 462.247 447.531C461.375 447.051 460.542 446.501 459.756 445.889C455.404 442.512 451.967 438.266 448.75 433.83C445.532 429.394 442.504 424.746 438.992 420.627C438.111 419.588 436.95 418.823 435.647 418.424C434.344 418.024 432.954 418.006 431.642 418.373C430.33 418.739 429.15 419.475 428.243 420.492C427.336 421.508 426.739 422.764 426.524 424.11C426.459 424.53 426.438 424.957 426.464 425.381C426.483 425.804 426.536 426.224 426.622 426.638C427.713 431.998 428.946 437.72 430.218 443.534C431.49 449.348 432.792 455.268 434.003 461.006C434.742 464.454 434.155 468.054 432.359 471.09C430.564 474.125 427.692 476.374 424.314 477.387C413.504 480.62 401.271 483.913 388.735 486.956C376.199 489.999 363.36 492.807 351.362 495.003C349.971 495.235 348.611 495.618 347.304 496.146C345.539 496.846 343.998 498.013 342.845 499.522C341.694 501.153 341.018 503.071 340.892 505.063C340.782 506.661 340.879 508.267 341.18 509.84C339.362 509.976 337.609 510.572 336.085 511.573C334.663 512.503 333.554 513.841 332.906 515.411C332.633 516.076 332.447 516.773 332.353 517.486C332.191 518.653 332.323 519.842 332.739 520.945C333.407 522.584 334.611 523.947 336.153 524.813C337.875 525.791 339.828 526.288 341.808 526.252C340.689 527.149 339.832 528.331 339.325 529.673C338.825 530.999 338.694 532.435 338.947 533.829C338.947 533.928 338.985 534.026 339.007 534.124L339.075 534.405C339.485 535.933 340.414 537.271 341.702 538.19C342.993 539.113 344.544 539.603 346.131 539.59H350.552L354.972 539.552C354.512 540.629 354.197 541.761 354.034 542.921C353.801 544.38 354.032 545.876 354.692 547.198C355.612 548.744 357.066 549.9 358.78 550.445C360.256 550.944 361.777 551.296 363.322 551.498C369.931 552.49 376.591 553.106 383.269 553.345C389.628 553.617 395.192 553.625 398.409 553.61L439.423 553.504L480.438 553.398L496.274 552.989L512.11 552.573L507.568 503.549L503.026 454.526L488.954 452.906L474.881 451.233Z" fill="#FFC0C0" stroke="black" stroke-width="3" stroke-miterlimit="10" stroke-linecap="round"/>
<path d="M341.18 509.84L374.427 504.624L407.667 499.408" stroke="black" stroke-width="3" stroke-miterlimit="10" stroke-linecap="round"/>
<path d="M341.808 526.251L376.244 522.012L410.688 517.78" stroke="black" stroke-width="3" stroke-miterlimit="10" stroke-linecap="round"/>
<path d="M354.972 539.498L382.83 537.159L410.688 534.812" stroke="black" stroke-width="3" stroke-miterlimit="10" stroke-linecap="round"/>
<path d="M229.825 456.471L212.497 485.426L195.17 514.381C195.163 514.389 195.159 514.4 195.16 514.41C195.161 514.421 195.166 514.431 195.174 514.438C195.182 514.445 195.192 514.449 195.203 514.448C195.213 514.447 195.223 514.442 195.23 514.434L212.853 500.899L230.484 487.356L230.151 471.914L229.825 456.471Z" fill="black" stroke="black" stroke-width="3" stroke-miterlimit="10" stroke-linecap="round"/>
</svg>
